<svg xmlns="http://www.w3.org/2000/svg" width="301" height="328.401" viewBox="0 0 301 328.401">
<style>


.shape {
  stroke-dasharray: 1080;
  stroke-dashoffset: 1080;
  animation: dash 2.9s  cubic-bezier(0.195, 0.010, 0.940, 1.030) ;
	
}

.shape:nth-child(even) {
	animation-delay: 1s;
  -webkit-animation-delay: 1s;
}

.shape:nth-child(4n+0) {
	animation-delay: 2.2s;
  -webkit-animation-delay: 2.2s;
}

@keyframes dash {
  to {
    stroke-dashoffset: 0;
  }
  90% {
    stroke-dashoffset: 280;

  }
}

@-webkit-keyframes dash {
  to {
    stroke-dashoffset: 0;
  }
  90% {
    stroke-dashoffset: 280;

  }
}

</style> 


<path class="shape" d="M35.123,30.45l-24.5-23s64.7-.3,135.1,31.7c21.8,37.5,27.3,46.1,27.3,46.1l2.7-28.9s50.7,33.7,67.9,52.7m14.3,15.5,13.8,19.6a36.642,36.642,0,0,1,6.7,19.6c.5,11-.3,27.1-8,37a47.3,47.3,0,0,0,19.9-15.7s10.9,33.6-15.1,65.9M48.123,42.85s31.1,31.1,47.1,81.7c9.6,30.9,19.3,44.1,19.3,44.1l75.3,19.2s-17.4,10.9-50.4,9.8c24.3,26,66.5,45.9,134,49.6m11.7,27.3h-73.9s14.7-7.6,20.6-13.8,13.7-16,19.7-15.4m-146-189.2s147.6,83.1,195.6,268c0,0-39.9-27.1-63.9-28.2-13.7-.6-27.7,8.8-38,16.1a53.023,53.023,0,0,1-37.8,9.3c-7.3-1-16.2-4.7-22.9-7.8-12.45-5.694-22.826-4.067-28.849-2.052a22.865,22.865,0,0,0-7.552,4.48,35.343,35.343,0,0,1-9.4,5.353,62.57,62.57,0,0,1-23.742,4.519H10.123m201.1-205.6s.9,21.8-1.8,27m-75.7-48.2,30.4,1.3m64.1,109.9h25.8" transform="translate(-5.123 -2.449)" fill="none" stroke="#b296d3" stroke-linecap="round" stroke-linejoin="round" stroke-width="10"/></svg>